# xmcd
#
# Track frame offsets:
#	150
#	17465
#	39648
#	63511
#	83174
#	103187
#	118117
#	139156
#	169219
#	199343
#
# Disc length: 3083 seconds
#
# Revision: 0
# Processed by: cddbd v1.5.2PL0 Copyright (c) Steve Scherf et al.
# Submitted via: audiograbber 1.83.01
#
DISCID=8b0c090a
DTITLE=Tinsley Ellis - Midnight Blue
DYEAR=2014
DGENRE=Blues
TTITLE0=If The River Keeps Rising
TTITLE1=Mouth Turn Dry
TTITLE2=Surrender
TTITLE3=It's Not Funny
TTITLE4=See No Harm
TTITLE5=The Only Thing
TTITLE6=Peace And Love
TTITLE7=Harder To Find
TTITLE8=That's My Story
TTITLE9=Kiss Of Death
EXTD=
EXTT0=
EXTT1=
EXTT2=
EXTT3=
EXTT4=
EXTT5=
EXTT6=
EXTT7=
EXTT8=
EXTT9=
PLAYORDER=
